<svg width="169" height="134" viewBox="0 0 169 134" fill="none" xmlns="http://www.w3.org/2000/svg">
<path fill-rule="evenodd" clip-rule="evenodd" d="M174.122 37.1583L174.117 37.6583L174.103 38.1582L174.079 38.6578L174.045 39.157L174.002 39.6556L173.949 40.1537L173.886 40.6509L173.814 41.1473L173.732 41.6426L173.641 42.1368L173.54 42.6296L173.43 43.1211L173.311 43.611L173.181 44.0992L173.043 44.5856L172.895 45.0702L172.738 45.5526L172.571 46.0329L172.395 46.5109L172.21 46.9865L172.016 47.4595L171.813 47.9299L171.6 48.3975L171.379 48.8622L171.148 49.3239L170.909 49.7824L170.661 50.2377L170.403 50.6896L170.138 51.1381L169.863 51.5829L169.58 52.024L169.288 52.4613L168.988 52.8947L168.679 53.324L168.362 53.7492L168.037 54.1702L167.704 54.5867L167.362 54.9988L167.013 55.4064L166.655 55.8092L166.29 56.2074L165.916 56.6006L165.535 56.9889L165.147 57.3721L164.751 57.7502L164.347 58.1231L163.937 58.4906L163.519 58.8527L163.094 59.2093L162.661 59.5603L162.222 59.9057L161.776 60.2452L161.324 60.579L160.864 60.9069L160.398 61.2287L159.926 61.5445L159.447 61.8542L158.963 62.1577L158.472 62.4549L157.975 62.7458L157.472 63.0303L156.964 63.3083L156.45 63.5798L155.93 63.8447L155.405 64.103L154.875 64.3546L154.34 64.5994L153.799 64.8375L153.254 65.0687L152.704 65.2931L152.149 65.5105L151.59 65.7209L151.026 65.9243L150.458 66.1207L149.886 66.3101L149.31 66.4923L148.73 66.6673L148.146 66.8352L147.559 66.9959L146.968 67.1494L146.373 67.2957L145.776 67.4347L145.175 67.5664L144.571 67.6908L143.965 67.808L143.355 67.9178L142.744 68.0203L142.129 68.1155L141.513 68.2034L140.894 68.284L140.273 68.3572L139.651 68.4231L139.026 68.4817L138.4 68.533L137.772 68.577L137.143 68.6138L136.513 68.6432L135.881 68.6655L135.249 68.6805L134.616 68.6883L133.982 68.6889L133.347 68.6824L132.713 68.6688L132.077 68.6481L131.442 68.6203L130.806 68.5855L130.171 68.5438L129.536 68.4951L128.901 68.4395L128.266 68.3771L127.633 68.3078L126.999 68.2319L126.367 68.1492L125.736 68.0598L125.106 67.9639L124.477 67.8615L123.849 67.7525L123.223 67.6372L122.598 67.5155L121.976 67.3875L121.355 67.2533L120.736 67.113L120.119 66.9666L119.504 66.8142L118.891 66.6559L118.281 66.4918L117.674 66.3218L117.069 66.1462L116.466 65.965L115.867 65.7783L115.271 65.5862L114.677 65.3887L114.087 65.1859L113.501 64.978L112.917 64.7651L112.337 64.5472L111.761 64.3244L111.188 64.0968L110.619 63.8646L110.054 63.6278L109.493 63.3865L108.936 63.1408L108.383 62.8909L107.834 62.6369L107.29 62.3788L106.75 62.1168L106.214 61.8509L105.683 61.5814L105.157 61.3082L104.636 61.0316L104.119 60.7516L103.607 60.4684L103.1 60.182L102.598 59.8926L102.101 59.6003L101.61 59.3053L101.123 59.0076L100.642 58.7074L100.166 58.4048L99.6956 58.0999L99.2306 57.7928L98.7711 57.4838L98.3171 57.1728L97.8688 56.8601L97.4261 56.5457L96.9891 56.2298L96.5578 55.9125L96.1323 55.594L95.7127 55.2743L95.2989 54.9537L94.8911 54.6322L94.4891 54.3099L94.0931 53.9871L93.7032 53.6638L93.3192 53.3401L92.9413 53.0163L92.5695 52.6923L92.2037 52.3684L91.8441 52.0448L91.4905 51.7214L91.1432 51.3985L90.8019 51.0762L90.4669 50.7546L90.138 50.4339L89.8152 50.1142L89.4987 49.7955L89.1883 49.4782L88.8841 49.1622L88.5861 48.8477L88.2943 48.5348L88.0086 48.2238L87.7291 47.9146L87.4557 47.6074L87.1884 47.3025L86.9273 46.9997L86.6722 46.6995L86.4232 46.4017L86.1803 46.1066L85.9434 45.8143L85.7125 45.5249L85.4876 45.2386L85.2686 44.9554L85.0556 44.6755L84.8484 44.399L84.647 44.126L84.4515 43.8566L84.2617 43.591L84.0777 43.3293L83.8993 43.0716L83.7266 42.818L83.5594 42.5686L83.3978 42.3235L83.2416 42.0828L83.0909 41.8467L82.9456 41.6152L82.8055 41.3886L82.6708 41.1667L82.5412 40.9499L82.4168 40.7381L82.2974 40.5315L82.1831 40.3301L82.0736 40.1341L81.9691 39.9436L81.8693 39.7586L81.7743 39.5793L81.684 39.4057L81.5982 39.238L81.5169 39.0761L81.44 38.9203L81.3675 38.7705L81.2993 38.627L81.2352 38.4896L81.1752 38.3586L81.1193 38.234L81.0672 38.1158L81.019 38.0042L80.9746 37.8993L80.9338 37.801L80.8966 37.7094L80.8628 37.6247L80.8325 37.5469L80.8054 37.4759L80.7815 37.412L80.7607 37.3552L80.7429 37.3054L80.728 37.2628L80.7159 37.2274L80.7065 37.1992L80.6997 37.1784L80.6954 37.1649L80.6935 37.1587L80.6939 37.16L80.6965 37.1688L80.7011 37.185L80.7078 37.2087L80.7163 37.24L80.7265 37.2789L80.7384 37.3253L80.7519 37.3794L80.7668 37.4412L80.783 37.5105L80.8004 37.5876L80.819 37.6723L80.8386 37.7648L80.859 37.8649L80.8803 37.9727L80.9022 38.0883L80.9246 38.2116L80.9476 38.3425L80.9708 38.4812L80.9943 38.6276L81.0179 38.7817L81.0416 38.9434L81.0651 39.1129L81.0884 39.2899L81.1114 39.4746L81.134 39.6669L81.156 39.8668L81.1773 40.0743L81.1979 40.2893L81.2177 40.5118L81.2364 40.7417L81.2541 40.9791L81.2706 41.2239L81.2858 41.4761L81.2995 41.7356L81.3118 42.0023L81.3224 42.2763L81.3313 42.5575L81.3384 42.8458L81.3436 43.1411L81.3467 43.4435L81.3477 43.7529L81.3464 44.0691L81.3428 44.3922L81.3368 44.7221L81.3282 45.0586L81.317 45.4018L81.3031 45.7516L81.2864 46.1079L81.2667 46.4706L81.244 46.8397L81.2182 47.215L81.1892 47.5965L81.1569 47.9841L81.1213 48.3777L81.0822 48.7773L81.0395 49.1827L80.9932 49.5938L80.9432 50.0107L80.8893 50.4331L80.8316 50.8609L80.77 51.2942L80.7043 51.7327L80.6344 52.1764L80.5604 52.6251L80.4821 53.0789L80.3995 53.5374L80.3125 54.0008L80.221 54.4688L80.1249 54.9413L80.0243 55.4182L79.9189 55.8995L79.8088 56.3849L79.694 56.8744L79.5743 57.3679L79.4496 57.8652L79.32 58.3663L79.1854 58.8709L79.0457 59.379L78.9008 59.8904L78.7508 60.4051L78.5956 60.9229L78.4351 61.4436L78.2694 61.9672L78.0982 62.4935L77.9217 63.0223L77.7398 63.5537L77.5524 64.0873L77.3595 64.6231L77.1611 65.161L76.9571 65.7008L76.7476 66.2423L76.5325 66.7855L76.3118 67.3302L76.0854 67.8763L75.8533 68.4236L75.6156 68.972L75.3722 69.5213L75.1231 70.0715L74.8683 70.6223L74.6077 71.1736L74.3415 71.7254L74.0695 72.2774L73.7917 72.8295L73.5083 73.3815L73.2191 73.9334L72.9241 74.485L72.6235 75.0361L72.3171 75.5866L72.0051 76.1363L71.6873 76.6852L71.3639 77.233L71.0349 77.7797L70.7002 78.3251L70.3599 78.869L70.014 79.4113L69.6625 79.9518L69.3055 80.4905L68.943 81.0272L68.5751 81.5617L68.2016 82.0939L67.8228 82.6237L67.4387 83.1509L67.0491 83.6754L66.6544 84.1971L66.2543 84.7158L65.8491 85.2313L65.4388 85.7436L65.0233 86.2525L64.6028 86.7579L64.1773 87.2596L63.7469 87.7575L63.3116 88.2515L62.8715 88.7415L62.4267 89.2272L61.9771 89.7087L61.523 90.1858L61.0643 90.6582L60.6011 91.126L60.1335 91.589L59.6615 92.0471L59.1853 92.5001L58.7049 92.9479L58.2204 93.3905L57.7318 93.8276L57.2393 94.2593L56.743 94.6852L56.2429 95.1055L55.739 95.5199L55.2316 95.9283L54.7206 96.3306L54.2062 96.7268L53.6885 97.1167L53.1676 97.5001L52.6435 97.8771L52.1164 98.2475L51.5863 98.6112L51.0533 98.9682L50.5177 99.3182L49.9793 99.6613L49.4385 99.9973L48.8952 100.326L48.3496 100.648L47.8017 100.962L47.2518 101.269L46.6998 101.568L46.146 101.86L45.5904 102.144L45.0331 102.421L44.4743 102.689L43.914 102.95L43.3524 103.203L42.7896 103.448L42.2257 103.685L41.6609 103.913L41.0952 104.134L40.5288 104.346L39.9618 104.55L39.3943 104.745L38.8264 104.932L38.2583 105.111L37.6901 105.281L37.1218 105.443L36.5537 105.596L35.9859 105.74L35.4185 105.876L34.8515 106.003L34.2852 106.121L33.7197 106.231L33.155 106.332L32.5914 106.424L32.0289 106.507L31.4676 106.581L30.9078 106.646L30.3495 106.703L29.7928 106.75L29.238 106.789L28.685 106.818L28.1341 106.839L27.5853 106.851L27.0388 106.853L26.4947 106.847L25.9532 106.832L25.4143 106.808L24.8783 106.775L24.3451 106.733L23.8151 106.682L23.2881 106.622L22.7645 106.553L22.2443 106.476L21.7277 106.389L21.2147 106.294L20.7055 106.19L20.2003 106.077L19.699 105.956L19.202 105.826L18.7092 105.687L18.2208 105.539L17.7369 105.383L17.2576 105.218L16.7831 105.045L16.3135 104.864L15.8488 104.673L15.3893 104.475L14.9349 104.268L14.4859 104.053L14.0423 103.83L13.6042 103.599L13.1718 103.359L12.7451 103.112L12.3243 102.857L11.9094 102.594L11.5007 102.323L11.0981 102.044L10.7017 101.757L10.3118 101.463L9.92825 101.162L9.55131 100.853L9.18104 100.537L8.81751 100.213L8.46083 99.8824L8.11109 99.5446L7.76837 99.1998L7.43276 98.8481L7.10435 98.4895L6.78321 98.1243L6.46944 97.7524L6.16312 97.3739L5.86432 96.9891L5.57311 96.5979L5.28958 96.2004L5.0138 95.7969L4.74583 95.3873L4.48576 94.9718L4.23364 94.5505L3.98955 94.1234L3.75354 93.6908L3.52567 93.2527L3.30602 92.8093L3.09463 92.3605L2.89157 91.9067L2.69688 91.4478L2.51062 90.984L2.33284 90.5155L2.16358 90.0422L2.00289 89.5644L1.85082 89.0822L1.70741 88.5957L1.57269 88.105L1.44671 87.6103L1.3295 87.1116L1.22108 86.6091L1.1215 86.103L1.03078 85.5933L0.94895 85.0801L0.876028 84.5637L0.81204 84.0441L0.757005 83.5215L0.71094 82.996L0.673861 82.4677L0.645781 81.9368L0.626711 81.4033L0.616658 80.8675L0.61563 80.3294L0.623631 79.7892L0.640661 79.2471L0.666721 78.703L0.701808 78.1573L0.745917 77.61L0.79904 77.0612L0.861169 76.5111L0.93229 75.9599L1.01239 75.4075L1.10145 74.8543L1.19946 74.3003L1.30639 73.7456L1.42222 73.1904L1.54693 72.6348L1.68048 72.079L1.82285 71.523L1.97401 70.9671L2.13391 70.4112L2.30254 69.8557L2.47984 69.3005L2.66577 68.7459L2.8603 68.1919L3.06338 67.6387L3.27495 67.0864L3.49498 66.5352L3.72341 65.9851L3.96018 65.4363L4.20524 64.8889L4.45854 64.343L4.72001 63.7988L4.98959 63.2564L5.26722 62.7159L5.55283 62.1773L5.84636 61.641L6.14772 61.1068L6.45686 60.5751L6.7737 60.0458L7.09817 59.5192L7.43017 58.9952L7.76965 58.4741L8.11651 57.9559L8.47067 57.4407L8.83205 56.9287L9.20056 56.42L9.57611 55.9146L9.95861 55.4127L10.348 54.9143L10.7441 54.4196L11.1469 53.9287L11.5563 53.4416L11.9722 52.9585L12.3944 52.4795L12.8229 52.0046L13.2576 51.5339L13.6984 51.0675L14.1451 50.6056L14.5977 50.1482L15.056 49.6953L15.52 49.2471L15.9895 48.8036L16.4644 48.365L16.9446 47.9313L17.43 47.5025L17.9204 47.0788L18.4159 46.6602L18.9161 46.2468L19.4211 45.8386L19.9306 45.4358L20.4447 45.0383L20.9631 44.6463L21.4857 44.2597L22.0124 43.8787L22.5431 43.5033L23.0776 43.1336L23.6159 42.7696L24.1578 42.4114L24.7031 42.0589L25.2518 41.7123L25.8037 41.3716L26.3586 41.0369L26.9165 40.7081L27.4773 40.3853L28.0407 40.0685L28.6067 39.7578L29.175 39.4532L29.7457 39.1547L30.3185 38.8623L30.8934 38.5761L31.4701 38.2961L32.0486 38.0223L32.6287 37.7548L33.2103 37.4934L33.7932 37.2383L34.3773 36.9894L34.9625 36.7468L35.5487 36.5105L36.1356 36.2804L36.7233 36.0565L37.3114 35.8389L37.9 35.6276L38.4888 35.4225L39.0778 35.2236L39.6667 35.031L40.2556 34.8446L40.8441 34.6643L41.4323 34.4902L42.0199 34.3223L42.6069 34.1605L43.193 34.0048L43.7783 33.8551L44.3624 33.7115L44.9454 33.5739L45.5271 33.4423L46.1073 33.3166L46.686 33.1968L47.2629 33.0829L47.838 32.9748L48.4112 32.8725L48.9823 32.7759L49.5512 32.6849L50.1177 32.5996L50.6818 32.5199L51.2434 32.4457L51.8023 32.3769L52.3583 32.3136L52.9115 32.2555L53.4616 32.2028L54.0085 32.1553L54.5522 32.1129L55.0925 32.0756L55.6293 32.0433L56.1625 32.0159L56.692 31.9934L57.2177 31.9757L57.7395 31.9627L58.2572 31.9543L58.7708 31.9504L59.2802 31.9511L59.7852 31.9561L60.2858 31.9654L60.7819 31.9789L61.2733 31.9965L61.76 32.0182L62.242 32.0438L62.719 32.0732L63.191 32.1064L63.6579 32.1433L64.1197 32.1837L64.5763 32.2275L65.0275 32.2748L65.4733 32.3252L65.9136 32.3789L66.3483 32.4356L66.7774 32.4952L67.2009 32.5577L67.6185 32.6229L68.0303 32.6907L68.4361 32.761L68.836 32.8338L69.2298 32.9088L69.6176 32.9861L69.9991 33.0654L70.3745 33.1466L70.7436 33.2297L71.1063 33.3146L71.4627 33.401L71.8126 33.4889L72.1561 33.5783L72.4931 33.6688L72.8235 33.7606L73.1473 33.8533L73.4644 33.947L73.7749 34.0414L74.0787 34.1365L74.3758 34.2322L74.6661 34.3282L74.9496 34.4246L75.2263 34.5212L75.4961 34.6178L75.7591 34.7144L76.0152 34.8107L76.2644 34.9068L76.5067 35.0025L76.7421 35.0976L76.9705 35.192L77.1921 35.2856L77.4066 35.3784L77.6143 35.4701L77.815 35.5606L78.0087 35.6499L78.1955 35.7377L78.3754 35.8241L78.5484 35.9088L78.7144 35.9918L78.8736 36.0729L79.0258 36.1519L79.1712 36.2289L79.3098 36.3037L79.4415 36.3761L79.5664 36.446L79.6845 36.5134L79.7959 36.578L79.9006 36.6399L79.9985 36.6988L80.0898 36.7547L80.1745 36.8075L80.2527 36.857L80.3242 36.9032L80.3893 36.9458L80.4479 36.9849L80.5001 37.0203L80.546 37.0519L80.5856 37.0796L80.6189 37.1033L80.6459 37.1229L80.6669 37.1383L80.6817 37.1494L80.6906 37.1561L80.6934 37.1583L80.6904 37.1559L80.6815 37.1489L80.6668 37.137L80.6465 37.1203L80.6205 37.0986L80.5889 37.0718L80.5519 37.0399L80.5094 37.0028L80.4617 36.9604L80.4086 36.9127L80.3504 36.8594L80.2871 36.8006L80.2188 36.7362L80.1456 36.6661L80.0675 36.5902L79.9847 36.5084L79.8972 36.4208L79.8052 36.3272L79.7087 36.2275L79.6078 36.1218L79.5026 36.0099L79.3932 35.8917L79.2798 35.7673L79.1623 35.6365L79.0409 35.4993L78.9158 35.3557L78.7869 35.2056L78.6545 35.0489L78.5186 34.8857L78.3793 34.7158L78.2367 34.5392L78.0909 34.356L77.9421 34.166L77.7903 33.9692L77.6357 33.7655L77.4784 33.5551L77.3184 33.3377L77.156 33.1135L76.9911 32.8823L76.824 32.6442L76.6547 32.3991L76.4833 32.1471L76.31 31.888L76.1348 31.622L75.958 31.3489L75.7795 31.0688L75.5996 30.7816L75.4184 30.4875L75.2358 30.1863L75.0522 29.878L74.8676 29.5628L74.682 29.2405L74.4957 28.9112L74.3088 28.5749L74.1213 28.2316L73.9334 27.8813L73.7452 27.5241L73.5568 27.1599L73.3683 26.7888L73.18 26.4109L72.9918 26.0261L72.8038 25.6344L72.6163 25.236L72.4294 24.8308L72.2431 24.4188L72.0575 24.0002L71.8728 23.5749L71.6891 23.143L71.5066 22.7046L71.3252 22.2597L71.1452 21.8083L70.9667 21.3504L70.7897 20.8863L70.6144 20.4158L70.4409 19.9391L70.2693 19.4562L70.0997 18.9672L69.9323 18.4722L69.767 17.9712L69.6042 17.4643L69.4437 16.9515L69.2859 16.433L69.1307 15.9088L68.9782 15.379L68.8287 14.8437L68.6821 14.3029L68.5385 13.7567L68.3982 13.2053L68.2611 12.6487L68.1275 12.087L67.9972 11.5203L67.8706 10.9486L67.7476 10.3722L67.6283 9.79102L67.513 9.20523L67.4015 8.61493L67.2941 8.0202L67.1907 7.42117L67.0916 6.81792L66.9968 6.21058L66.9063 5.59924L66.8203 4.98403L66.7388 4.36505L66.6619 3.74242L66.5896 3.11625L66.5222 2.48666L66.4596 1.85376L66.4019 1.21768L66.3491 0.578537L66.3014 -0.0635452L66.2588 -0.708443L66.2214 -1.35603L66.1892 -2.00619L66.1623 -2.65878L66.1408 -3.31369L66.1247 -3.97077L66.1141 -4.62991L66.109 -5.29096L66.1095 -5.9538L66.1156 -6.61829L66.1274 -7.2843L66.1449 -7.95169L66.1682 -8.62033L66.1973 -9.29007L66.2322 -9.96079L66.273 -10.6323L66.3198 -11.3046L66.3725 -11.9774L66.4312 -12.6506L66.496 -13.3241L66.5668 -13.9977L66.6436 -14.6713L66.7266 -15.3447L66.8157 -16.0179L66.911 -16.6906L67.0124 -17.3627L67.12 -18.0341L67.2337 -18.7046L67.3537 -19.3741L67.4799 -20.0424L67.6123 -20.7094L67.751 -21.375L67.8958 -22.039L68.0469 -22.7012L68.2043 -23.3616L68.3678 -24.0199L68.5376 -24.676L68.7136 -25.3298L68.8957 -25.9812L69.0841 -26.6299L69.2787 -27.2759L69.4794 -27.919L69.6862 -28.5591L69.8992 -29.1959L70.1183 -29.8295L70.3434 -30.4596L70.5746 -31.086L70.8119 -31.7088L71.0551 -32.3276L71.3042 -32.9424L71.5593 -33.5531L71.8203 -34.1594L72.0871 -34.7613L72.3597 -35.3586L72.6381 -35.9512L72.9222 -36.539L73.212 -37.1218L73.5074 -37.6994L73.8083 -38.2719L74.1148 -38.8389L74.4267 -39.4005L74.7441 -39.9564L75.0667 -40.5065L75.3947 -41.0508L75.7279 -41.589L76.0663 -42.1211L76.4097 -42.647L76.7582 -43.1665L77.1117 -43.6795L77.47 -44.1858L77.8331 -44.6855L78.201 -45.1783L78.5735 -45.6641L78.9507 -46.1429L79.3323 -46.6144L79.7183 -47.0787L80.1087 -47.5356L80.5034 -47.985L80.9022 -48.4267L81.3051 -48.8608L81.712 -49.287L82.1228 -49.7054L82.5374 -50.1157L82.9557 -50.5179L83.3777 -50.912L83.8032 -51.2977L84.2321 -51.6751L84.6643 -52.044L85.0998 -52.4043L85.5384 -52.7561L85.9801 -53.0991L86.4246 -53.4333L86.872 -53.7587L87.3221 -54.0751L87.7749 -54.3825L88.2301 -54.6808L88.6877 -54.9699L89.1476 -55.2498L89.6097 -55.5205L90.0738 -55.7818L90.5399 -56.0336L91.0078 -56.2761L91.4774 -56.5089L91.9487 -56.7323L92.4215 -56.9459L92.8956 -57.15L93.371 -57.3443L93.8475 -57.5288L94.325 -57.7035L94.8035 -57.8684L95.2827 -58.0234L95.7627 -58.1685L96.2431 -58.3036L96.724 -58.4287L97.2052 -58.5439L97.6866 -58.649L98.1681 -58.7441L98.6494 -58.8291L99.1307 -58.904L99.6116 -58.9688L100.092 -59.0235L100.572 -59.068L101.051 -59.1024L101.53 -59.1267L102.007 -59.1408L102.484 -59.1448L102.959 -59.1387L103.434 -59.1224L103.906 -59.096L104.378 -59.0594L104.847 -59.0128L105.315 -58.9561L105.781 -58.8892L106.245 -58.8124L106.707 -58.7255L107.166 -58.6285L107.624 -58.5216L108.078 -58.4047L108.531 -58.2779L108.98 -58.1412L109.427 -57.9947L109.87 -57.8383L110.311 -57.6722L110.749 -57.4963L111.183 -57.3107L111.614 -57.1155L112.041 -56.9106L112.464 -56.6963L112.884 -56.4724L113.301 -56.2392L113.713 -55.9965L114.121 -55.7445L114.525 -55.4833L114.924 -55.2129L115.32 -54.9334L115.71 -54.6449L116.097 -54.3473L116.478 -54.0409L116.855 -53.7256L117.227 -53.4016L117.594 -53.069L117.956 -52.7277L118.313 -52.3779L118.664 -52.0197L119.01 -51.6532L119.351 -51.2785L119.686 -50.8956L120.016 -50.5046L120.34 -50.1057L120.658 -49.6989L120.97 -49.2844L121.276 -48.8622L121.577 -48.4324L121.871 -47.9952L122.159 -47.5506L122.441 -47.0988L122.716 -46.6398L122.985 -46.1738L123.248 -45.7009L123.504 -45.2212L123.754 -44.7348L123.996 -44.2418L124.233 -43.7424L124.462 -43.2366L124.685 -42.7246L124.9 -42.2064L125.109 -41.6824L125.311 -41.1524L125.506 -40.6168L125.693 -40.0755L125.874 -39.5287L126.047 -38.9766L126.213 -38.4193L126.372 -37.8569L126.524 -37.2895L126.668 -36.7173L126.805 -36.1404L126.935 -35.5589L127.057 -34.973L127.172 -34.3828L127.279 -33.7884L127.379 -33.19L127.471 -32.5877L127.556 -31.9816L127.633 -31.372L127.703 -30.7588L127.765 -30.1423L127.819 -29.5226L127.866 -28.8999L127.905 -28.2742L127.937 -27.6457L127.961 -27.0146L127.978 -26.381L127.986 -25.745L127.988 -25.1068L127.982 -24.4666L127.968 -23.8243L127.946 -23.1803L127.918 -22.5346L127.881 -21.8874L127.837 -21.2388L127.786 -20.5889L127.727 -19.938L127.661 -19.2861L127.587 -18.6333L127.506 -17.9799L127.418 -17.3259L127.322 -16.6716L127.219 -16.0169L127.109 -15.3621L126.991 -14.7073L126.867 -14.0527L126.735 -13.3983L126.596 -12.7443L126.45 -12.0909L126.298 -11.4381L126.138 -10.7861L125.972 -10.1351L125.798 -9.48516L125.618 -8.8364L125.432 -8.18897L125.238 -7.54299L125.039 -6.89859L124.832 -6.2559L124.62 -5.61504L124.4 -4.97614L124.175 -4.3393L123.944 -3.70467L123.706 -3.07236L123.462 -2.44248L123.212 -1.81516L122.957 -1.19051L122.696 -0.568638L122.428 0.0503311L122.156 0.66629L121.877 1.27913L121.594 1.88873L121.305 2.495L121.01 3.09782L120.711 3.6971L120.406 4.29272L120.096 4.8846L119.782 5.47262L119.463 6.05669L119.139 6.63672L118.81 7.2126L118.477 7.78426L118.14 8.35158L117.798 8.9145L117.452 9.47291L117.102 10.0267L116.749 10.5759L116.391 11.1203L116.03 11.6599L115.665 12.1946L115.296 12.7243L114.924 13.2489L114.549 13.7684L114.171 14.2827L113.79 14.7917L113.405 15.2954L113.019 15.7937L112.629 16.2866L112.237 16.7739L111.842 17.2557L111.445 17.7318L111.046 18.2023L110.645 18.667L110.242 19.126L109.837 19.5791L109.431 20.0263L109.023 20.4677L108.613 20.9031L108.203 21.3325L107.791 21.7558L107.378 22.1732L106.964 22.5844L106.549 22.9895L106.134 23.3885L105.718 23.7813L105.302 24.1679L104.886 24.5483L104.469 24.9225L104.052 25.2904L103.636 25.6521L103.22 26.0076L102.804 26.3567L102.388 26.6996L101.974 27.0363L101.56 27.3666L101.147 27.6906L100.735 28.0084L100.324 28.3199L99.914 28.6252L99.5058 28.9242L99.0991 29.217L98.694 29.5035L98.2907 29.7838L97.8893 30.058L97.4899 30.326L97.0926 30.5878L96.6976 30.8435L96.305 31.0932L95.9149 31.3367L95.5275 31.5743L95.1428 31.8059L94.7609 32.0315L94.3821 32.2512L94.0063 32.465L93.6337 32.673L93.2645 32.8751L92.8987 33.0716L92.5365 33.2624L92.178 33.4475L91.8232 33.627L91.4723 33.801L91.1254 33.9695L90.7826 34.1326L90.444 34.2904L90.1097 34.4428L89.7799 34.59L89.4545 34.7321L89.1337 34.869L88.8177 35.001L88.5065 35.1279L88.2002 35.25L87.8988 35.3673L87.6026 35.4799L87.3116 35.5878L87.0258 35.6911L86.7453 35.79L86.4704 35.8844L86.2009 35.9745L85.9371 36.0604L85.6789 36.1421L85.4266 36.2198L85.18 36.2935L84.9394 36.3633L84.7048 36.4293L84.4763 36.4917L84.2539 36.5504L84.0377 36.6057L83.8278 36.6575L83.6242 36.7061L83.4271 36.7514L83.2363 36.7937L83.0521 36.8329L82.8745 36.8693L82.7036 36.9029L82.5392 36.9338L82.3817 36.9621L82.2309 36.9879L82.0869 37.0114L81.9499 37.0327L81.8197 37.0518L81.6965 37.0688L81.5802 37.084L81.471 37.0973L81.3689 37.109L81.2739 37.119L81.1859 37.1276L81.1052 37.1349L81.0316 37.1409L80.9652 37.1458L80.906 37.1497L80.854 37.1526L80.8093 37.1548L80.7718 37.1564L80.7417 37.1574L80.7188 37.158L80.7032 37.1583L80.6949 37.1583L80.6939 37.1583L80.7002 37.1584L80.7138 37.1586L80.7347 37.1591L80.7629 37.16L80.7983 37.1614L80.841 37.1634L80.891 37.1661L80.9482 37.1697L81.0126 37.1743L81.0843 37.18L81.1631 37.1869L81.2491 37.1952L81.3421 37.2048L81.4423 37.216L81.5496 37.2289L81.6639 37.2435L81.7852 37.26L81.9135 37.2786L82.0487 37.2992L82.1908 37.3221L82.3397 37.3473L82.4954 37.3749L82.6578 37.4051L82.827 37.4379L83.0028 37.4735L83.1852 37.5119L83.3741 37.5534L83.5695 37.5979L83.7714 37.6455L83.9795 37.6964L84.194 37.7508L84.4147 37.8085L84.6416 37.8699L84.8745 37.9349L85.1135 38.0037L85.3584 38.0763L85.6092 38.1529L85.8657 38.2335L86.128 38.3182L86.396 38.4071L86.6694 38.5004L86.9484 38.598L87.2327 38.7001L87.5223 38.8068L87.8171 38.918L88.1171 39.034L88.422 39.1548L88.7319 39.2804L89.0466 39.411L89.3661 39.5466L89.6902 39.6872L90.0189 39.833L90.3519 39.984L90.6894 40.1403L91.031 40.3019L91.3768 40.4689L91.7266 40.6414L92.0803 40.8194L92.4379 41.003L92.7991 41.1922L93.1639 41.3871L93.5322 41.5877L93.9038 41.7941L94.2787 42.0063L94.6568 42.2244L95.0378 42.4484L95.4217 42.6783L95.8085 42.9142L96.1978 43.1561L96.5898 43.4041L96.9841 43.6582L97.3808 43.9183L97.7796 44.1846L98.1804 44.4571L98.5832 44.7357L98.9879 45.0206L99.3941 45.3116L99.802 45.6089L100.211 45.9124L100.622 46.2222L101.034 46.5383L101.446 46.8606L101.86 47.1893L102.275 47.5241L102.69 47.8653L103.106 48.2128L103.522 48.5665L103.938 48.9265L104.355 49.2927L104.771 49.6652L105.188 50.0439L105.604 50.4288L106.02 50.8199L106.436 51.2172L106.85 51.6206L107.265 52.0302L107.678 52.4458L108.09 52.8676L108.501 53.2953L108.911 53.729L109.319 54.1688L109.726 54.6144L110.131 55.0659L110.535 55.5233L110.937 55.9864L111.336 56.4553L111.734 56.9299L112.129 57.4101L112.522 57.8959L112.912 58.3873L113.3 58.8841L113.685 59.3863L114.067 59.8939L114.446 60.4068L114.822 60.9249L115.194 61.4481L115.564 61.9764L115.93 62.5097L116.292 63.048L116.651 63.5911L117.006 64.1389L117.357 64.6915L117.704 65.2487L118.046 65.8103L118.385 66.3765L118.719 66.947L119.049 67.5217L119.374 68.1006L119.695 68.6836L120.011 69.2705L120.322 69.8613L120.628 70.4559L120.929 71.0542L121.224 71.6561L121.515 72.2614L121.8 72.8701L122.08 73.4821L122.354 74.0972L122.623 74.7153L122.886 75.3364L123.143 75.9603L123.394 76.5869L123.64 77.2161L123.879 77.8478L124.112 78.4818L124.339 79.118L124.56 79.7564L124.775 80.3967L124.983 81.0389L125.184 81.6829L125.379 82.3284L125.568 82.9755L125.75 83.6239L125.925 84.2735L126.093 84.9243L126.255 85.576L126.409 86.2285L126.557 86.8818L126.698 87.5356L126.831 88.1899L126.958 88.8445L127.077 89.4993L127.189 90.1541L127.294 90.8088L127.392 91.4633L127.482 92.1174L127.566 92.771L127.641 93.4239L127.71 94.076L127.77 94.7273L127.824 95.3774L127.87 96.0264L127.908 96.674L127.939 97.3201L127.963 97.9646L127.979 98.6074L127.987 99.2482L127.988 99.887L127.981 100.524L127.966 101.158L127.944 101.79L127.915 102.419L127.877 103.045L127.833 103.669L127.78 104.289L127.72 104.907L127.653 105.521L127.578 106.132L127.495 106.739L127.405 107.342L127.307 107.941L127.202 108.537L127.089 109.128L126.969 109.715L126.842 110.298L126.707 110.876L126.564 111.45L126.415 112.019L126.258 112.582L126.094 113.141L125.922 113.695L125.744 114.243L125.558 114.786L125.365 115.323L125.165 115.854L124.958 116.38L124.744 116.9L124.524 117.413L124.296 117.921L124.062 118.422L123.821 118.917L123.573 119.405L123.319 119.887L123.058 120.362L122.79 120.829L122.517 121.29L122.237 121.744L121.95 122.191L121.658 122.63L121.359 123.062L121.055 123.486L120.744 123.903L120.427 124.312L120.105 124.713L119.777 125.106L119.443 125.491L119.104 125.868L118.759 126.237L118.409 126.597L118.054 126.949L117.694 127.293L117.328 127.628L116.958 127.954L116.582 128.272L116.202 128.581L115.817 128.881L115.427 129.172L115.033 129.454L114.635 129.727L114.232 129.991L113.825 130.245L113.414 130.49L112.999 130.726L112.58 130.953L112.157 131.17L111.731 131.377L111.301 131.575L110.868 131.763L110.431 131.942L109.992 132.11L109.549 132.269L109.103 132.419L108.654 132.558L108.203 132.688L107.749 132.807L107.292 132.917L106.833 133.017L106.372 133.106L105.908 133.186L105.443 133.255L104.976 133.315L104.506 133.364L104.036 133.404L103.563 133.433L103.09 133.452L102.614 133.461L102.138 133.46L101.661 133.448L101.183 133.427L100.704 133.395L100.224 133.353L99.7434 133.301L99.2625 133.239L98.7814 133.167L98.3 133.085L97.8186 132.993L97.3371 132.89L96.8559 132.778L96.3749 132.656L95.8943 132.523L95.4142 132.381L94.9348 132.229L94.4561 132.066L93.9783 131.894L93.5015 131.712L93.0258 131.521L92.5513 131.32L92.0781 131.108L91.6065 130.888L91.1364 130.658L90.668 130.418L90.2014 130.168L89.7367 129.91L89.274 129.642L88.8135 129.364L88.3553 129.078L87.8994 128.782L87.446 128.477L86.9952 128.163L86.547 127.84L86.1017 127.508L85.6592 127.168L85.2197 126.818L84.7834 126.46L84.3503 126.094L83.9204 125.719L83.494 125.335L83.0711 124.943L82.6517 124.543L82.2361 124.135L81.8242 123.719L81.4162 123.295L81.0122 122.863L80.6123 122.424L80.2165 121.976L79.8249 121.521L79.4377 121.059L79.0548 120.59L78.6765 120.113L78.3027 119.629L77.9335 119.138L77.569 118.64L77.2094 118.136L76.8546 117.624L76.5048 117.107L76.1599 116.583L75.8202 116.052L75.4855 115.516L75.1561 114.973L74.832 114.424L74.5132 113.87L74.1997 113.31L73.8918 112.745L73.5893 112.174L73.2924 111.597L73.0011 111.016L72.7154 110.43L72.4355 109.838L72.1613 109.242L71.8928 108.642L71.6303 108.036L71.3736 107.427L71.1228 106.813L70.8779 106.195L70.6391 105.574L70.4062 104.948L70.1794 104.319L69.9587 103.687L69.744 103.051L69.5355 102.411L69.3331 101.769L69.1368 101.124L68.9468 100.476L68.7629 99.8253L68.5852 99.1722L68.4137 98.5166L68.2485 97.8589L68.0894 97.1991L67.9366 96.5374L67.7901 95.8739L67.6497 95.2087L67.5156 94.5421L67.3877 93.8741L67.266 93.2049L67.1505 92.5346L67.0412 91.8635L66.9381 91.1915L66.8412 90.519L66.7504 89.8459L66.6658 89.1726L66.5872 88.499L66.5148 87.8254L66.4484 87.1519L66.388 86.4786L66.3337 85.8056L66.2853 85.1332L66.2428 84.4615L66.2063 83.7905L66.1756 83.1205L66.1507 82.4515L66.1316 81.7838L66.1183 81.1174L66.1106 80.4525L66.1086 79.7892L66.1122 79.1276L66.1213 78.4679L66.1359 77.8103L66.1559 77.1548L66.1813 76.5015L66.2121 75.8507L66.248 75.2024L66.2892 74.5567L66.3355 73.9139L66.3869 73.2739L66.4433 72.637L66.5045 72.0032L66.5707 71.3727L66.6416 70.7456L66.7172 70.1219L66.7975 69.502L66.8823 68.8857L66.9715 68.2733L67.0652 67.6648L67.1631 67.0605L67.2653 66.4603L67.3716 65.8643L67.482 65.2728L67.5963 64.6858L67.7145 64.1033L67.8365 63.5256L67.9622 62.9526L68.0914 62.3846L68.2242 61.8215L68.3603 61.2634L68.4998 60.7106L68.6424 60.163L68.7882 59.6207L68.9369 59.0839L69.0886 58.5525L69.243 58.0268L69.4002 57.5067L69.5599 56.9924L69.7221 56.4838L69.8867 55.9812L70.0536 55.4845L70.2226 54.9939L70.3936 54.5093L70.5666 54.0309L70.7415 53.5588L70.918 53.0929L71.0961 52.6333L71.2757 52.1801L71.4567 51.7334L71.639 51.2932L71.8224 50.8595L72.0068 50.4324L72.1921 50.0119L72.3782 49.5982L72.565 49.1911L72.7524 48.7908L72.9402 48.3973L73.1283 48.0106L73.3167 47.6308L73.5051 47.2578L73.6935 46.8917L73.8818 46.5326L74.0698 46.1804L74.2574 45.8352L74.4445 45.497L74.631 45.1658L74.8168 44.8416L75.0017 44.5244L75.1856 44.2142L75.3684 43.9111L75.5501 43.615L75.7304 43.3259L75.9092 43.0439L76.0865 42.7689L76.2621 42.5009L76.436 42.2399L76.6079 41.9859L76.7778 41.7389L76.9455 41.4989L77.111 41.2659L77.2741 41.0397L77.4348 40.8205L77.5929 40.6082L77.7482 40.4027L77.9008 40.204L78.0504 40.0121L78.197 39.827L78.3405 39.6486L78.4807 39.4769L78.6176 39.3119L78.751 39.1534L78.8808 39.0015L79.007 38.8561L79.1294 38.7172L79.248 38.5846L79.3625 38.4585L79.473 38.3386L79.5794 38.225L79.6815 38.1175L79.7792 38.0162L79.8725 37.9209L79.9612 37.8317L80.0453 37.7483L80.1247 37.6709L80.1992 37.5992L80.2689 37.5332L80.3336 37.4728L80.3932 37.4181L80.4476 37.3688L80.4969 37.3249L80.5408 37.2864L80.5793 37.2531L80.6124 37.2249L80.6399 37.2019L80.6618 37.1838L80.678 37.1706L80.6885 37.1622L80.6932 37.1585L80.6919 37.1595L80.6847 37.165L80.6716 37.1749L80.6523 37.1891L80.6269 37.2076L80.5953 37.2301L80.5575 37.2568L80.5133 37.2873L80.4629 37.3217L80.406 37.3598L80.3427 37.4015L80.2729 37.4467L80.1966 37.4953L80.1137 37.5472L80.0242 37.6022L79.9281 37.6603L79.8253 37.7214L79.7157 37.7853L79.5994 37.8519L79.4764 37.9212L79.3465 37.9929L79.2099 38.067L79.0664 38.1434L78.916 38.2219L78.7587 38.3025L78.5946 38.3849L78.4235 38.4692L78.2455 38.5551L78.0606 38.6426L77.8688 38.7315L77.67 38.8217L77.4642 38.9131L77.2516 39.0055L77.032 39.0989L76.8054 39.1931L76.5719 39.2881L76.3315 39.3836L76.0842 39.4796L75.83 39.5759L75.5689 39.6724L75.3009 39.769L75.0261 39.8656L74.7445 39.962L74.456 40.0582L74.1608 40.154L73.8589 40.2493L73.5502 40.3439L73.2349 40.4378L72.9129 40.5308L72.5843 40.6228L72.2491 40.7137L71.9074 40.8034L71.5593 40.8917L71.2046 40.9786L70.8436 41.0639L70.4763 41.1475L70.1026 41.2292L69.7228 41.3091L69.3367 41.3869L68.9446 41.4625L68.5463 41.5359L68.1421 41.607L67.7319 41.6755L67.3159 41.7414L66.8941 41.8046L66.4665 41.8651L66.0333 41.9226L65.5945 41.9771L65.1502 42.0284L64.7005 42.0765L64.2454 42.1213L63.785 42.1627L63.3195 42.2005L62.8489 42.2347L62.3732 42.2652L61.8926 42.2919L61.4072 42.3146L60.917 42.3334L60.4222 42.348L59.9229 42.3585L59.419 42.3647L58.9109 42.3665L58.3984 42.3639L57.8818 42.3568L57.3611 42.345L56.8365 42.3286L56.3081 42.3074L55.7758 42.2814L55.24 42.2505L54.7007 42.2145L54.1579 42.1735L53.6118 42.1274L53.0626 42.0761L52.5103 42.0196L51.955 41.9577L51.3969 41.8904L50.836 41.8177L50.2726 41.7395L49.7067 41.6557L49.1384 41.5663L48.5679 41.4712L47.9953 41.3705L47.4207 41.264L46.8443 41.1516L46.2661 41.0335L45.6863 40.9094L45.105 40.7794L44.5224 40.6435L43.9385 40.5015L43.3536 40.3535L42.7676 40.1995L42.1809 40.0394L41.5934 39.8731L41.0054 39.7007L40.4169 39.5221L39.8282 39.3374L39.2392 39.1465L38.6503 38.9493L38.0614 38.7459L37.4727 38.5363L36.8844 38.3204L36.2967 38.0983L35.7095 37.8699L35.1231 37.6353L34.5376 37.3944L33.9532 37.1472L33.3699 36.8938L32.788 36.6342L32.2075 36.3683L31.6285 36.0962L31.0513 35.8179L30.4759 35.5334L29.9025 35.2428L29.3313 34.9459L28.7622 34.643L28.1956 34.334L27.6315 34.0189L27.07 33.6977L26.5113 33.3705L25.9555 33.0374L25.4028 32.6983L24.8532 32.3533L24.3069 32.0025L23.7641 31.6458L23.2248 31.2834L22.6892 30.9152L22.1575 30.5414L21.6297 30.162L21.1059 29.7769L20.5863 29.3864L20.0711 28.9904L19.5603 28.589L19.0541 28.1823L18.5525 27.7703L18.0557 27.3531L17.5639 26.9308L17.0771 26.5034L16.5955 26.0711L16.1191 25.6338L15.6481 25.1916L15.1826 24.7447L14.7227 24.2931L14.2686 23.8369L13.8202 23.3762L13.3778 22.9111L12.9415 22.4416L12.5112 21.9678L12.0873 21.4899L11.6697 21.0079L11.2585 20.5219L10.8539 20.032L10.4559 19.5384L10.0647 19.041L9.68028 18.54L9.30281 18.0356L8.93236 17.5277L8.56902 17.0166L8.21287 16.5023L7.864 15.9849L7.52249 15.4646L7.18843 14.9414L6.86189 14.4155L6.54295 13.8869L6.2317 13.3558L5.92819 12.8224L5.63251 12.2866L5.34472 11.7486L5.0649 11.2087L4.7931 10.6667L4.5294 10.123L4.27386 9.5776L4.02653 9.03061L3.78748 8.48218L3.55676 7.93243L3.33443 7.38148L3.12053 6.82947L2.91512 6.2765L2.71824 5.72272L2.52995 5.16826L2.35028 4.61323L2.17927 4.05777L2.01697 3.50201L1.86341 2.94608L1.71863 2.3901L1.58266 1.83421L1.45552 1.27854L1.33726 0.723225L1.22789 0.168396L1.12743 -0.385822L1.03591 -0.939289L0.953355 -1.49187L0.87977 -2.04344L0.815176 -2.59387L0.759583 -3.14301L0.713002 -3.69074L0.675442 -4.23692L0.646907 -4.78143L0.627401 -5.32412L0.616925 -5.86486L0.615479 -6.40353L0.623058 -6.93998L0.639657 -7.4741L0.665268 -8.00574L0.699881 -8.53477L0.743484 -9.06107L0.796062 -9.58449L0.857598 -10.1049L0.928073 -10.6222L1.00746 -11.1363L1.09575 -11.6469L1.19291 -12.1541L1.2989 -12.6576L1.41371 -13.1573L1.53729 -13.6531L1.66962 -14.1449L1.81065 -14.6326L1.96035 -15.116L2.11868 -15.595L2.28559 -16.0695L2.46104 -16.5394L2.64498 -17.0045L2.83736 -17.4647L3.03814 -17.92L3.24725 -18.3701L3.46464 -18.815L3.69026 -19.2546L3.92404 -19.6887L4.16593 -20.1173L4.41585 -20.5402L4.67375 -20.9573L4.93956 -21.3685L5.21321 -21.7737L5.49462 -22.1729L5.78373 -22.5658L6.08046 -22.9524L6.38473 -23.3326L6.69647 -23.7063L7.01559 -24.0734L7.34201 -24.4338L7.67566 -24.7874L8.01644 -25.1341L8.36427 -25.4738L8.71905 -25.8065L9.08071 -26.132L9.44915 -26.4503L9.82427 -26.7613L10.206 -27.0648L10.5942 -27.3609L10.9888 -27.6494L11.3897 -27.9302L11.7968 -28.2034L12.21 -28.4687L12.6292 -28.7262L13.0542 -28.9758L13.4851 -29.2174L13.9216 -29.4509L14.3637 -29.6763L14.8113 -29.8935L15.2642 -30.1025L15.7224 -30.3032L16.1856 -30.4956L16.6539 -30.6795L17.1271 -30.855L17.6051 -31.0221L18.0877 -31.1805L18.5749 -31.3304L19.0665 -31.4717L19.5624 -31.6043L20.0625 -31.7283L20.5666 -31.8434L21.0748 -31.9499L21.5867 -32.0475L22.1024 -32.1363L22.6216 -32.2163L23.1443 -32.2874L23.6703 -32.3497L24.1995 -32.403L24.7318 -32.4474L25.2671 -32.4829L25.8052 -32.5095L26.346 -32.5271L26.8894 -32.5358L27.4352 -32.5355L27.9834 -32.5262L28.5338 -32.508L29.0862 -32.4809L29.6406 -32.4448L30.1967 -32.3998L30.7546 -32.3458L31.314 -32.283L31.8749 -32.2112L32.4371 -32.1306L33.0004 -32.0411L33.5648 -31.9428L34.1301 -31.8357L34.6962 -31.7198L35.263 -31.5952L35.8303 -31.4618L36.3981 -31.3198L36.9661 -31.1691L37.5343 -31.0098L38.1025 -30.842L38.6707 -30.6656L39.2386 -30.4808L39.8062 -30.2875L40.3734 -30.0859L40.94 -29.876L41.5059 -29.6578L42.071 -29.4314L42.6352 -29.1968L43.1983 -28.9542L43.7602 -28.7035L44.3208 -28.4449L44.8801 -28.1784L45.4378 -27.9041L45.9939 -27.622L46.5482 -27.3323L47.1007 -27.035L47.6512 -26.7302L48.1996 -26.4179L48.7459 -26.0983L49.2898 -25.7714L49.8313 -25.4374L50.3704 -25.0962L50.9068 -24.7481L51.4405 -24.3931L51.9713 -24.0312L52.4993 -23.6626L53.0242 -23.2875L53.5461 -22.9057L54.0647 -22.5176L54.58 -22.1232L55.0919 -21.7225L55.6003 -21.3158L56.1051 -20.903L56.6063 -20.4843L57.1037 -20.0599L57.5972 -19.6298L58.0869 -19.1942L58.5725 -18.7531L59.054 -18.3067L59.5314 -17.8551L60.0045 -17.3984L60.4733 -16.9368L60.9377 -16.4703L61.3977 -15.9991L61.8531 -15.5233L62.3039 -15.043L62.7501 -14.5584L63.1915 -14.0696L63.6281 -13.5766L64.0598 -13.0798L64.4867 -12.5791L64.9085 -12.0747L65.3254 -11.5668L65.7371 -11.0554L66.1438 -10.5407L66.5452 -10.0229L66.9414 -9.50205L67.3324 -8.97831L67.718 -8.45183L68.0983 -7.92274L68.4732 -7.39117L68.8427 -6.85727L69.2067 -6.32117L69.5652 -5.78301L69.9182 -5.24295L70.2656 -4.7011L70.6075 -4.15762L70.9437 -3.61265L71.2743 -3.06633L71.5993 -2.5188L71.9185 -1.9702L72.2322 -1.42067L72.5401 -0.870361L72.8423 -0.319412L73.1388 0.23204L73.4295 0.783852L73.7146 1.33588L73.9939 1.88797L74.2675 2.44001L74.5353 2.99183L74.7974 3.5433L75.0538 4.09428L75.3045 4.64463L75.5495 5.1942L75.7887 5.74287L76.0223 6.29047L76.2503 6.8369L76.4726 7.38199L76.6892 7.92561L76.9003 8.46764L77.1057 9.00792L77.3056 9.54632L77.5 10.0827L77.6889 10.617L77.8724 11.1489L78.0504 11.6785L78.223 12.2055L78.3902 12.7298L78.5521 13.2514L78.7088 13.7699L78.8602 14.2855L79.0065 14.7978L79.1476 15.3069L79.2836 15.8124L79.4146 16.3145L79.5406 16.8128L79.6616 17.3074L79.7778 17.798L79.8892 18.2845L79.9959 18.7669L80.0978 19.2451L80.1951 19.7188L80.2878 20.1881L80.3761 20.6527L80.4599 21.1126L80.5394 21.5677L80.6146 22.0178L80.6855 22.4629L80.7524 22.9028L80.8151 23.3375L80.8739 23.7669L80.9288 24.1908L80.9799 24.6091L81.0272 25.0219L81.0708 25.4288L81.1109 25.83L81.1475 26.2253L81.1807 26.6146L81.2106 26.9977L81.2373 27.3748L81.2608 27.7455L81.2813 28.11L81.2988 28.468L81.3135 28.8196L81.3254 29.1646L81.3347 29.503L81.3414 29.8347L81.3457 30.1597L81.3476 30.4778L81.3472 30.7891L81.3446 31.0933L81.34 31.3906L81.3335 31.6809L81.3251 31.964L81.3149 32.2399L81.3031 32.5087L81.2897 32.7702L81.2749 33.0243L81.2587 33.2712L81.2414 33.5106L81.2229 33.7426L81.2034 33.9672L81.1831 34.1842L81.1619 34.3937L81.1401 34.5957L81.1176 34.7901L81.0947 34.9769L81.0715 35.1561L81.048 35.3276L81.0244 35.4914L81.0008 35.6476L80.9773 35.7961L80.9539 35.9369L80.9309 36.07L80.9083 36.1954L80.8862 36.313L80.8648 36.423L80.8441 36.5252L80.8243 36.6198L80.8054 36.7066L80.7877 36.7858L80.7711 36.8573L80.7558 36.9211L80.742 36.9773L80.7296 37.0258L80.7189 37.0668L80.7099 37.1001L80.7028 37.1259L80.6976 37.1442L80.6944 37.155L80.6934 37.1583L80.6947 37.1542L80.6983 37.1427L80.7044 37.1239L80.7131 37.0977L80.7244 37.0643L80.7386 37.0237L80.7555 36.9759L80.7755 36.9209L80.7985 36.859L80.8247 36.79L80.8542 36.714L80.887 36.6311L80.9232 36.5415L80.963 36.445L81.0065 36.3419L81.0536 36.2321L81.1046 36.1157L81.1595 35.9929L81.2183 35.8636L81.2813 35.728L81.3484 35.5861L81.4197 35.438L81.4954 35.2839L81.5754 35.1237L81.66 34.9575L81.7491 34.7855L81.8428 34.6078L81.9413 34.4243L82.0445 34.2353L82.1526 34.0408L82.2656 33.841L82.3835 33.6358L82.5066 33.4254L82.6347 33.2099L82.7681 32.9894L82.9067 32.7641L83.0505 32.5339L83.1998 32.299L83.3544 32.0596L83.5145 31.8158L83.6802 31.5675L83.8514 31.315L84.0282 31.0584L84.2107 30.7978L84.3989 30.5332L84.5929 30.2649L84.7926 29.9929L84.9982 29.7173L85.2096 29.4383L85.427 29.156L85.6503 28.8705L85.8795 28.582L86.1148 28.2905L86.356 27.9961L86.6034 27.6991L86.8567 27.3995L87.1162 27.0974L87.3818 26.7931L87.6535 26.4865L87.9313 26.1779L88.2153 25.8673L88.5055 25.5549L88.8018 25.2409L89.1043 24.9253L89.413 24.6083L89.7278 24.29L90.0489 23.9705L90.3761 23.6501L90.7095 23.3287L91.049 23.0066L91.3947 22.6838L91.7465 22.3606L92.1045 22.037L92.4686 21.7132L92.8388 21.3892L93.215 21.0653L93.5973 20.7416L93.9856 20.4182L94.38 20.0952L94.7803 19.7728L95.1865 19.451L95.5987 19.1301L96.0167 18.8102L96.4406 18.4914L96.8703 18.1737L97.3057 17.8574L97.7468 17.5426L98.1936 17.2294L98.6461 16.918L99.1041 16.6084L99.5676 16.3008L100.037 15.9953L100.511 15.692L100.991 15.3911L101.476 15.0927L101.966 14.797L102.461 14.5039L102.962 14.2137L103.468 13.9265L103.978 13.6424L104.493 13.3615L105.014 13.0839L105.539 12.8098L106.068 12.5393L106.603 12.2724L107.141 12.0093L107.684 11.7501L108.232 11.495L108.784 11.2439L109.34 10.9971L109.9 10.7546L110.464 10.5166L111.032 10.2831L111.603 10.0542L112.179 9.83011L112.758 9.61084L113.34 9.39651L113.926 9.18723L114.515 8.98307L115.108 8.78413L115.703 8.59052L116.302 8.40231L116.903 8.21957L117.508 8.04243L118.114 7.87094L118.724 7.70519L119.336 7.54527L119.95 7.39124L120.566 7.24319L121.185 7.1012L121.805 6.96532L122.428 6.83564L123.052 6.71223L123.677 6.59514L124.305 6.48444L124.933 6.3802L125.563 6.28249L126.194 6.19134L126.826 6.10682L127.459 6.02899L128.093 5.9579L128.727 5.8936L129.362 5.83614L129.997 5.78555L130.632 5.74188L131.268 5.70519L131.903 5.6755L132.538 5.65285L133.173 5.63728L133.808 5.62882L134.442 5.62749L135.076 5.63334L135.708 5.64638L136.34 5.66663L136.971 5.69411L137.6 5.72886L138.228 5.77087L138.855 5.82018L139.48 5.87679L140.103 5.94069L140.724 6.01192L141.343 6.09046L141.961 6.17632L142.576 6.26952L143.188 6.37003L143.798 6.47785L144.405 6.59299L145.01 6.71543L145.611 6.84515L146.21 6.98216L146.805 7.12643L147.397 7.27794L147.985 7.43667L148.57 7.6026L149.151 7.7757L149.728 7.95596L150.302 8.14333L150.871 8.33779L151.436 8.53931L151.996 8.74783L152.552 8.96334L153.104 9.18578L153.65 9.41512L154.192 9.65132L154.729 9.89431L155.26 10.1441L155.787 10.4005L156.308 10.6636L156.824 10.9333L157.333 11.2096L157.838 11.4923L158.336 11.7814L158.829 12.0769L159.315 12.3786L159.795 12.6866L160.269 13.0008L160.737 13.321L161.198 13.6472L161.653 13.9794L162.101 14.3174L162.542 14.6611L162.976 15.0106L163.403 15.3657L163.823 15.7263L164.236 16.0923L164.641 16.4637L165.039 16.8404L165.43 17.2222L165.813 17.6091L166.188 18.001L166.556 18.3978L166.915 18.7994L167.267 19.2057L167.611 19.6165L167.947 20.0319L168.274 20.4516L168.593 20.8757L168.904 21.3039L169.207 21.7361L169.501 22.1724L169.786 22.6125L170.063 23.0563L170.331 23.5038L170.591 23.9547L170.842 24.4091L171.083 24.8668L171.316 25.3276L171.54 25.7915L171.755 26.2583L171.961 26.7279L172.158 27.2002L172.346 27.6751L172.524 28.1525L172.693 28.6322L172.853 29.1141L173.003 29.598L173.144 30.0839L173.276 30.5717L173.398 31.0611L173.511 31.5522L173.615 32.0447L173.708 32.5385L173.793 33.0335L173.867 33.5296L173.933 34.0266L173.988 34.5244L174.034 35.023L174.07 35.522L174.097 36.0215L174.114 36.5213L174.122 37.0213L174.122 37.1583Z" stroke="#B072FF"/>
</svg>
